# xmcd
#
# Track frame offsets:
#  150
#  13057
#  27652
#  40537
#  55785
#  66640
#  79035
#  89920
#  102055
#  116995
#  129242
#  139180
#
# Disc length: 2008 seconds
#
# Revision: 0
# Processed by: cddbd v1.5.1PL0 Copyright (c) Steve Scherf et al.
# Submitted via: AltoMP3_Maker 3.0
#
DISCID=a807d60c
DTITLE=SuperCountry - Say it Through the Music
DYEAR=1900
DGENRE=
TTITLE0=Motor Home Driving
TTITLE1=Say it Through the music
TTITLE2=Back to you
TTITLE3=Don't Blame me
TTITLE4=The Will to love
TTITLE5=Rock your Blues away
TTITLE6=Who were you thinkin' of
TTITLE7=hopelessly yours
TTITLE8=Don Jesu
TTITLE9=Why Should I
TTITLE10=One mint Julep
TTITLE11=Take it Easy
EXTD=
EXTT0=
EXTT1=
EXTT2=
EXTT3=
EXTT4=
EXTT5=
EXTT6=
EXTT7=
EXTT8=
EXTT9=
EXTT10=
EXTT11=
PLAYORDER=
